<svg width="1700" height="1700" viewBox="0 0 1700 1700" fill="none" xmlns="http://www.w3.org/2000/svg">
<mask id="mask0_1404_1406" style="mask-type:luminance" maskUnits="userSpaceOnUse" x="0" y="0" width="1700" height="1700">
<path d="M1700 0H0V1700H1700V0Z" fill="white"/>
</mask>
<g mask="url(#mask0_1404_1406)">
<path fill-rule="evenodd" clip-rule="evenodd" d="M254.048 849.771C254.048 508.181 529.886 231.271 870.149 231.271C1210.41 231.271 1486.25 508.181 1486.25 849.771C1486.25 1191.36 1210.41 1468.27 870.149 1468.27C529.886 1468.27 254.048 1191.36 254.048 849.771Z" fill="#2B3F6B"/>
<path d="M409.869 1078.83L436.271 1145.94L378.261 1168.98L306.486 986.548C303.306 978.465 301.263 971.343 300.359 965.182C299.642 958.946 300.271 953.371 302.245 948.458C304.219 943.544 307.726 939.217 312.766 935.477C317.733 931.548 324.44 927.906 332.888 924.551L381.887 905.091C394.09 900.245 405.983 897.369 417.566 896.464C429.075 895.37 439.841 896.528 449.865 899.937C459.815 903.158 468.778 908.835 476.754 916.97C484.918 925.029 491.625 935.732 496.876 949.079L498.762 953.872C504.013 967.218 506.402 979.636 505.93 991.126C505.645 1002.54 503.006 1012.93 498.011 1022.31C492.942 1031.49 485.873 1039.73 476.805 1047.03C467.663 1054.14 456.99 1060.12 444.788 1064.96L409.869 1078.83ZM390.566 1029.77L422.669 1017.02C427.362 1015.16 431.197 1012.76 434.172 1009.84C437.261 1006.66 439.471 1003.17 440.802 999.386C442.321 995.522 443.035 991.544 442.944 987.451C442.853 983.357 442.031 979.337 440.478 975.389L439.702 973.416C438.149 969.468 436.012 965.97 433.293 962.92C430.574 959.87 427.345 957.458 423.608 955.682C420.058 953.832 416.109 952.9 411.763 952.887C407.531 952.612 403.068 953.407 398.374 955.271L374.438 964.777C371.246 966.045 369.309 967.466 368.626 969.041C367.87 970.428 368.157 972.814 369.488 976.197L390.566 1029.77ZM623.219 1071.69C614.771 1075.05 607.435 1077.09 601.211 1077.82C594.913 1078.37 589.372 1077.53 584.588 1075.3C579.803 1073.07 575.551 1069.43 571.83 1064.39C568.298 1059.27 564.941 1052.67 561.761 1044.59L500.858 889.792C499.009 885.092 498.133 880.659 498.229 876.491C498.514 872.248 499.49 868.383 501.156 864.896C503.011 861.334 505.5 858.28 508.623 855.736C511.672 853.003 515.074 850.892 518.829 849.4C522.584 847.909 526.504 847.113 530.588 847.012C534.599 846.724 538.399 847.279 541.989 848.679C545.766 850.004 549.109 852.154 552.016 855.129C555.111 858.03 557.582 861.83 559.431 866.529L615.232 1008.36C616.563 1011.74 618.014 1013.77 619.584 1014.45C621.08 1014.94 623.424 1014.56 626.615 1013.29L689.131 988.461C693.262 986.821 697.03 986.193 700.438 986.579C703.96 986.702 707.046 987.649 709.697 989.422C712.462 990.932 714.811 993.042 716.746 995.751C718.794 998.198 720.372 1000.83 721.482 1003.65C722.591 1006.47 723.268 1009.57 723.513 1012.95C723.945 1016.26 723.703 1019.5 722.787 1022.69C721.871 1025.88 720.301 1028.79 718.077 1031.41C715.852 1034.03 712.675 1036.16 708.545 1037.8L623.219 1071.69ZM725.868 794.234C725.578 785.221 728.073 777.493 733.352 771.049C738.745 764.343 745.29 759.461 752.987 756.404C760.121 753.571 767.75 752.823 775.874 754.161C784.186 755.424 791.172 759.388 796.832 766.051L950.87 941.565L888.917 966.17L864.178 935.568L791.806 964.311L794.861 1003.52L734.035 1027.68L725.868 794.234ZM787.702 910.844L830.787 893.732L781.762 832.024L787.702 910.844ZM1064.2 793.86L1019.94 681.357C1016.53 672.711 1016.48 665.125 1019.77 658.6C1023.18 651.813 1028.26 647.078 1035.02 644.394C1041.78 641.709 1048.62 641.711 1055.54 644.397C1062.57 646.821 1067.79 652.356 1071.19 661.003L1141.08 838.639C1142.78 842.962 1143.41 847.057 1142.98 850.924C1142.55 854.79 1141.46 858.373 1139.72 861.673C1137.98 864.972 1135.68 867.951 1132.82 870.609C1130.14 873.192 1127.25 875.212 1124.13 876.667C1117.59 879.915 1110.2 881.546 1101.96 881.56C1093.79 881.761 1086.74 879.563 1080.8 874.964L964.17 780.446L1017.2 915.223L965.944 935.578L887.513 736.231C885.812 731.908 885.141 727.719 885.5 723.664C885.858 719.61 886.908 715.932 888.648 712.633C890.503 709.071 892.861 705.961 895.723 703.303C898.584 700.645 901.537 698.494 904.58 696.851C911.043 693.415 918.302 691.727 926.358 691.788C934.413 691.849 941.408 694.179 947.342 698.778L1064.2 793.86ZM1157.3 783.293L1098.61 634.135C1096.84 629.624 1096.04 625.378 1096.21 621.398C1096.49 617.156 1097.5 613.385 1099.25 610.085C1100.91 606.598 1103.21 603.619 1106.15 601.149C1109.2 598.417 1112.6 596.305 1116.35 594.814C1119.92 593.397 1123.65 592.675 1127.55 592.649C1131.56 592.36 1135.36 592.916 1138.95 594.316C1142.65 595.453 1145.96 597.509 1148.87 600.484C1151.89 603.197 1154.29 606.809 1156.06 611.32L1214.75 760.478L1157.3 783.293ZM1172.31 825.583C1168.83 816.748 1168.72 808.749 1171.98 801.586C1175.24 794.423 1181.66 788.94 1191.24 785.138C1200.81 781.335 1209.26 781.022 1216.59 784.197C1223.84 787.185 1229.17 793.002 1232.57 801.649C1235.97 810.296 1236.08 818.295 1232.9 825.646C1229.64 832.809 1223.22 838.291 1213.64 842.094C1204.07 845.897 1195.66 846.304 1188.4 843.316C1181.15 840.329 1175.78 834.417 1172.31 825.583ZM1324.36 793.232L1254.7 616.16L1211.61 633.271C1207.48 634.912 1203.62 635.576 1200.02 635.266C1196.61 634.88 1193.49 633.838 1190.65 632.14C1188 630.368 1185.61 628.164 1183.49 625.529C1181.56 622.82 1180.04 620.055 1178.93 617.236C1177.82 614.416 1177.08 611.447 1176.73 608.33C1176.48 604.949 1176.76 601.796 1177.56 598.869C1178.48 595.68 1180.08 592.868 1182.38 590.434C1184.8 587.737 1188.07 585.568 1192.2 583.928L1336.94 526.443C1341.07 524.802 1344.84 524.175 1348.25 524.56C1351.77 524.683 1354.86 525.631 1357.51 527.404C1360.27 528.914 1362.62 531.023 1364.56 533.733C1366.6 536.18 1368.18 538.813 1369.29 541.632C1370.4 544.452 1371.08 547.552 1371.32 550.932C1371.75 554.238 1371.51 557.486 1370.6 560.675C1369.68 563.864 1368.11 566.77 1365.89 569.392C1363.66 572.014 1360.48 574.146 1356.35 575.786L1313.27 592.897L1382.94 769.969L1324.36 793.232Z" fill="white"/>
<path fill-rule="evenodd" clip-rule="evenodd" d="M12.6106 1191.24C-32.7499 1073.55 307.293 831.543 772.119 650.703C1236.94 469.863 1650.54 418.683 1695.89 536.373C1741.26 654.073 1401.22 896.083 936.387 1076.92C471.562 1257.76 57.9721 1308.94 12.6106 1191.24ZM48.1563 1177.42C85.9156 1275.39 477.428 1214.41 922.621 1041.21C1367.82 868.013 1698.11 648.183 1660.35 550.203C1622.59 452.233 1231.08 513.213 785.885 686.413C340.689 859.613 10.397 1079.44 48.1563 1177.42Z" fill="#2B3F6B"/>
<path fill-rule="evenodd" clip-rule="evenodd" d="M6.0589 1158.03C-39.302 1040.33 300.741 798.322 765.568 617.492C1230.39 436.652 1643.99 385.472 1689.34 503.162C1734.71 620.862 1394.66 862.872 929.838 1043.71C465.01 1224.55 51.4204 1275.73 6.0589 1158.03ZM41.6046 1144.2C79.3639 1242.18 468.886 1181.19 914.082 1007.99C1359.28 834.792 1689.57 614.962 1651.81 516.992C1614.05 419.022 1224.53 480.002 779.333 653.202C334.137 826.402 3.84533 1046.23 41.6046 1144.2Z" fill="white"/>
<path fill-rule="evenodd" clip-rule="evenodd" d="M261.927 946.412C208.802 608.872 438.077 291.982 774.028 238.612C1008.68 201.332 1243.74 302.972 1378.11 499.802L261.927 946.412Z" fill="#2B3F6B"/>
</g>
</svg>
