<svg width="1238" height="1238" xmlns="http://www.w3.org/2000/svg" xmlns:xlink="http://www.w3.org/1999/xlink" xml:space="preserve" overflow="hidden"><defs><clipPath id="clip0"><rect x="0" y="0" width="1238" height="1238"/></clipPath></defs><g clip-path="url(#clip0)"><path d="M0 619C-7.88069e-14 277.136 277.136-7.88069e-14 619-1.57614e-13 960.864-3.15228e-13 1238 277.136 1238 619 1238 960.864 960.864 1238 619 1238 277.136 1238-3.94035e-13 960.864 0 619Z" fill="#2B3F6B" fill-rule="evenodd"/><path d="M938.552 604.556C945.19 601.569 950.803 603.325 955.391 609.821 959.978 616.318 962.272 625.759 962.272 638.144 962.272 650.166 959.978 661.579 955.391 672.386 950.803 683.193 945.19 690.089 938.552 693.076 932.11 695.974 926.546 694.106 921.861 687.471 917.175 680.836 914.833 671.508 914.833 659.487 914.833 647.101 917.175 635.574 921.861 624.906 926.546 614.237 932.11 607.454 938.552 604.556ZM520.231 628.07C510.904 673.136 501.576 718.201 492.249 763.267 510.48 755.065 528.711 746.863 546.942 738.661 538.038 701.798 529.135 664.934 520.231 628.07ZM257.962 610.213C265.478 606.831 272.994 603.45 280.51 600.069 280.803 599.937 281.096 599.805 281.389 599.673 298.081 592.164 314.772 584.655 331.464 577.145 331.757 577.014 332.05 576.882 332.342 576.75 339.859 573.369 347.375 569.987 354.891 566.606 354.891 568.427 354.891 570.249 354.891 572.07 354.696 572.158 354.013 572.465 352.841 572.992 351.67 573.519 351.084 573.783 351.084 573.783 346.008 576.066 341.664 581.39 338.053 589.754 334.441 598.118 332.538 607.08 332.342 616.639 332.342 722.28 332.342 827.921 332.342 933.561 344.739 927.984 357.136 922.407 369.533 916.83 379.099 912.526 387.786 904.884 395.596 893.903 403.404 882.922 410.14 869.146 415.801 852.574 421.463 836.003 425.855 817.361 428.979 796.649 429.858 796.253 430.736 795.858 431.615 795.463 427.612 836.97 423.61 878.477 419.608 919.984 419.315 920.115 419.022 920.247 418.73 920.379 398.817 929.337 378.904 938.296 358.991 947.255 350.108 951.251 341.225 955.247 332.342 959.243 332.05 959.375 331.757 959.507 331.464 959.638 314.772 967.148 298.081 974.657 281.389 982.167 281.096 982.298 280.803 982.43 280.51 982.562 272.994 985.943 265.478 989.324 257.962 992.706 257.962 990.885 257.962 989.063 257.962 987.242 257.962 987.242 258.596 986.956 259.865 986.385 261.134 985.815 261.769 985.529 261.769 985.529 266.844 983.245 271.188 977.922 274.8 969.558 278.412 961.194 280.315 952.232 280.51 942.673 280.51 841.768 280.51 740.863 280.51 639.957 280.315 630.574 278.412 623.325 274.8 618.211 271.188 613.096 266.844 611.681 261.769 613.964 261.769 613.964 261.134 614.25 259.865 614.821 258.596 615.392 257.962 615.677 257.962 615.677 257.962 613.856 257.962 612.034 257.962 610.213ZM60.0421 699.254C67.5582 695.873 75.0744 692.491 82.5906 689.11 82.8834 688.978 83.1762 688.846 83.4691 688.715 99.1847 681.644 114.9 674.574 130.616 667.504 131.885 666.933 133.154 666.362 134.423 665.791 144.477 661.268 154.531 656.745 164.585 652.222 182.741 644.054 197.334 642.224 208.364 646.733 219.395 651.242 227.545 660.143 232.816 673.435 238.087 686.728 241.016 702.896 241.601 721.939 241.992 741.434 240.333 759.849 236.623 777.181 232.914 794.514 227.692 809.978 220.956 823.572 214.221 837.166 206.607 848.15 198.115 856.524 189.623 864.898 180.74 869.805 171.467 871.245 162.194 872.685 153.164 869.916 144.379 862.94 144.379 861.119 144.379 859.298 144.379 857.476 144.379 857.476 145.453 856.902 147.601 855.754 149.748 854.606 152.53 852.261 155.946 848.721 159.363 845.18 162.926 840.481 166.635 834.623 170.344 828.765 173.858 820.991 177.177 811.302 180.496 801.613 183.034 789.816 184.791 775.911 185.572 770.46 186.109 764.754 186.402 758.794 186.694 752.834 186.743 747.348 186.548 742.335 186.158 719.562 182.741 702.885 176.299 692.305 169.856 681.725 160.876 679.026 149.358 684.208 144.379 686.447 139.401 688.687 134.423 690.927 134.423 796.75 134.423 902.573 134.423 1008.4 134.618 1017.78 136.522 1025.03 140.133 1030.14 143.745 1035.26 148.089 1036.67 153.164 1034.39 153.555 1034.21 154.287 1033.88 155.361 1033.4 156.434 1032.92 156.971 1032.68 156.971 1032.68 156.971 1034.5 156.971 1036.32 156.971 1038.14 149.455 1041.52 141.939 1044.9 134.423 1048.28 134.13 1048.42 133.837 1048.55 133.544 1048.68 116.853 1056.19 100.161 1063.7 83.4691 1071.21 83.1762 1071.34 82.8834 1071.47 82.5906 1071.6 75.0744 1074.98 67.5582 1078.37 60.0421 1081.75 60.0421 1079.93 60.0421 1078.1 60.0421 1076.28 60.4325 1076.11 61.1158 1075.8 62.0919 1075.36 63.068 1074.92 63.6537 1074.66 63.8489 1074.57 68.9248 1072.29 73.2686 1066.96 76.8802 1058.6 80.4919 1050.23 82.3953 1041.27 82.5906 1031.71 82.5906 930.809 82.5906 829.904 82.5906 728.998 82.5906 719.527 80.7359 712.256 77.0266 707.186 73.3174 702.115 68.9248 700.722 63.8489 703.005 63.6537 703.093 63.1168 703.335 62.2383 703.73 61.3598 704.125 60.7253 704.411 60.3349 704.586 60.2373 702.809 60.1397 701.031 60.0421 699.254ZM912.783 314.526C930.353 306.621 947.923 298.717 965.494 290.812 963.444 352.023 961.394 413.233 959.344 474.443 955.439 504.067 951.535 533.691 947.63 563.315 941.871 565.906 936.112 568.497 930.353 571.088 926.448 544.977 922.544 518.866 918.639 492.756 916.687 433.346 914.735 373.936 912.783 314.526ZM984.478 272.982C986.43 273.561 989.407 273.679 993.409 273.336 997.411 272.992 1001.85 272.269 1006.73 271.166 1011.61 270.063 1016.1 268.59 1020.2 266.745 1060.71 248.521 1101.22 230.296 1141.73 212.072 1146.03 210.14 1150.57 207.551 1155.35 204.306 1160.13 201.062 1164.57 197.789 1168.67 194.487 1172.77 191.186 1175.7 188.411 1177.46 186.164 1177.46 189.442 1177.46 192.721 1177.46 195.999 1177.46 198.003 1177.46 200.006 1177.46 202.01 1177.46 207.838 1177.46 213.667 1177.46 219.495 1177.46 220.041 1177.46 220.588 1177.46 221.134 1177.46 244.084 1177.46 267.033 1177.46 289.983 1176.48 290.24 1175.51 290.497 1174.53 290.754 1174.53 289.115 1174.53 287.476 1174.53 285.836 1174.53 266.529 1171.55 252.569 1165.6 243.955 1159.64 235.341 1151.4 233.224 1140.85 237.602 1129.53 242.696 1118.21 247.79 1106.88 252.884 1106.88 358.89 1106.88 464.895 1106.88 570.9 1107.08 580.284 1108.98 587.532 1112.59 592.647 1116.21 597.761 1120.55 599.176 1125.63 596.893 1125.63 596.893 1126.26 596.607 1127.53 596.037 1128.8 595.466 1129.43 595.18 1129.43 595.18 1129.43 597.002 1129.43 598.823 1129.43 600.644 1121.92 604.026 1114.4 607.407 1106.88 610.789 1106.59 610.92 1106.3 611.052 1106.01 611.184 1089.31 618.693 1072.62 626.203 1055.93 633.712 1055.64 633.844 1055.34 633.975 1055.05 634.107 1047.54 637.489 1040.02 640.87 1032.5 644.251 1032.5 642.43 1032.5 640.609 1032.5 638.787 1032.5 638.787 1033.14 638.502 1034.41 637.931 1035.68 637.36 1036.31 637.075 1036.31 637.075 1041.39 634.791 1045.73 629.467 1049.34 621.103 1052.95 612.739 1054.86 603.778 1055.05 594.219 1055.05 488.213 1055.05 382.208 1055.05 276.203 1043.73 281.297 1032.41 286.391 1021.08 291.485 1010.54 296.592 1002.29 306.131 996.338 320.103 990.383 334.074 987.406 350.714 987.406 370.02 987.406 371.66 987.406 373.299 987.406 374.938 986.43 375.559 985.454 376.181 984.478 376.802 984.478 353.852 984.478 330.903 984.478 307.953 984.478 307.407 984.478 306.86 984.478 306.314 984.478 300.485 984.478 294.657 984.478 288.828 984.478 286.825 984.478 284.821 984.478 282.818 984.478 279.539 984.478 276.261 984.478 272.982ZM533.716 474.134C534.595 473.739 535.473 473.343 536.352 472.948 566.439 579.048 596.527 685.148 626.615 791.247 627.034 792.506 627.453 793.765 627.873 795.023 630.527 801.786 633.647 806.342 637.234 808.69 642.017 811.82 646.654 812.375 651.144 810.355 651.144 810.355 651.535 810.179 652.316 809.828 652.43 809.776 652.544 809.725 652.659 809.673 652.935 809.549 653.211 809.425 653.487 809.301 653.894 809.118 654.301 808.935 654.708 808.751 655.197 808.532 655.49 808.4 655.587 808.356 660.468 806.16 664.665 800.994 668.179 792.856 671.693 784.718 673.45 776.095 673.45 766.988 673.45 672.458 673.45 577.927 673.45 483.397 673.45 462.633 672.865 446.322 671.693 434.463 670.522 422.605 669.936 416.676 669.936 416.676 670.912 416.236 671.888 415.797 672.865 415.358 720.89 476.261 768.915 537.165 816.941 598.068 816.941 531.223 816.941 464.378 816.941 397.532 816.745 388.149 814.94 381.038 811.523 376.201 808.107 371.363 803.861 370.085 798.785 372.369 798.785 372.369 797.906 372.764 796.149 373.555 794.392 374.345 793.416 374.784 793.221 374.872 793.221 373.051 793.221 371.229 793.221 369.408 801.127 365.851 809.034 362.294 816.941 358.737 817.136 358.649 817.331 358.561 817.526 358.473 833.925 351.096 850.324 343.718 866.723 336.34 867.016 336.209 867.309 336.077 867.602 335.945 875.411 332.432 883.22 328.919 891.029 325.406 891.029 327.227 891.029 329.048 891.029 330.87 891.029 330.87 890.15 331.265 888.393 332.056 886.636 332.846 885.758 333.241 885.758 333.241 880.877 335.437 876.68 340.513 873.166 348.468 869.651 356.424 867.797 365.182 867.602 374.741 867.602 468.543 867.602 562.345 867.602 656.146 867.602 670.353 867.943 682.585 868.626 692.842 869.31 703.099 869.896 710.94 870.384 716.367 870.872 721.794 871.116 724.507 871.116 724.507 870.237 724.902 869.359 725.297 868.48 725.693 820.374 664.824 772.268 603.955 724.161 543.086 724.229 610.085 724.297 677.084 724.365 744.083 724.378 744.077 724.391 744.071 724.404 744.065 724.404 753.172 726.161 760.213 729.675 765.189 733.189 770.166 737.386 771.556 742.267 769.36 742.462 769.272 743.438 768.833 745.195 768.043 746.952 767.252 747.831 766.857 747.831 766.857 747.831 768.678 747.831 770.5 747.831 772.321 740.022 775.834 732.213 779.347 724.404 782.861 724.111 782.992 723.818 783.124 723.525 783.256 707.126 790.633 690.728 798.011 674.329 805.389 674.036 805.52 673.743 805.652 673.45 805.784 666.796 808.778 660.141 811.771 653.487 814.765 652.332 815.285 651.178 815.804 650.023 816.323 617.111 831.13 584.199 845.937 551.287 860.744 551.287 858.922 551.287 857.101 551.287 855.279 552.165 854.884 553.044 854.489 553.922 854.094 557.827 852.337 561.292 847.773 564.318 840.401 567.344 833.029 567.588 824.45 565.05 814.663 565.125 814.629 565.199 814.596 565.274 814.562 560.988 796.819 556.703 779.076 552.417 761.333 530.449 771.216 508.48 781.099 486.512 790.983 482.022 812.674 477.533 834.365 473.043 856.055 473.159 856.003 473.276 855.951 473.392 855.899 471.635 863.975 471.244 870.343 472.22 875.004 473.197 879.665 474.905 882.812 477.345 884.446 479.785 886.081 482.177 886.371 484.52 885.317 485.398 884.922 486.277 884.526 487.155 884.131 487.155 885.952 487.155 887.774 487.155 889.595 465.778 899.213 444.401 908.83 423.024 918.447 423.024 916.626 423.024 914.804 423.024 912.983 423.024 912.983 423.463 912.785 424.341 912.39 425.22 911.995 425.659 911.797 425.659 911.797 430.149 909.777 434.786 905.05 439.569 897.616 441.961 893.899 444.145 889.388 446.121 884.082 447.026 881.326 447.931 878.571 448.836 875.816 471.858 769.793 494.881 663.77 517.903 557.747 518.879 554.758 520.099 549.564 521.564 542.166 523.028 534.768 524.687 526.645 526.542 517.797 528.396 508.948 530.007 500.574 531.374 492.673 532.74 484.773 533.521 478.593 533.716 474.134Z" fill="#FFFFFF" fill-rule="evenodd"/><text fill="#000000" fill-opacity="0" font-family="Arial,Arial_MSFontService,sans-serif" font-size="895.583" x="60.0421" y="969.799">PLAN!T</text></g></svg>